<mxfile host="app.diagrams.net" modified="2021-12-18T03:40:48.972Z" agent="5.0 (Windows)" etag="_pi9giZtAQmM0-kgh8Cw" version="16.0.0" type="github">
  <diagram id="6BCx8if7dqBbNabnBFhv" name="Page-1">
    <mxGraphModel dx="1038" dy="536" grid="1" gridSize="10" guides="1" tooltips="1" connect="1" arrows="1" fold="1" page="1" pageScale="1" pageWidth="827" pageHeight="1169" math="0" shadow="0">
      <root>
        <mxCell id="0" />
        <mxCell id="1" parent="0" />
        <mxCell id="NRYB0XT5AGCFpWJ0epdG-1" value="Published post" style="rounded=0;whiteSpace=wrap;html=1;" vertex="1" parent="1">
          <mxGeometry x="360" y="400" width="120" height="60" as="geometry" />
        </mxCell>
        <mxCell id="NRYB0XT5AGCFpWJ0epdG-2" value="" style="html=1;shadow=0;dashed=0;align=center;verticalAlign=middle;shape=mxgraph.arrows2.arrow;dy=0.6;dx=40;direction=south;notch=0;" vertex="1" parent="1">
          <mxGeometry x="385" y="300" width="70" height="100" as="geometry" />
        </mxCell>
        <mxCell id="NRYB0XT5AGCFpWJ0epdG-3" value="Work" style="rounded=0;whiteSpace=wrap;html=1;" vertex="1" parent="1">
          <mxGeometry x="360" y="250" width="120" height="60" as="geometry" />
        </mxCell>
      </root>
    </mxGraphModel>
  </diagram>
</mxfile>
